/* XPM */
static const char *tascar_xz[] = {
/* columns rows colors chars-per-pixel */
"24 24 81 1 ",
"  c black",
". c #010101010101",
"X c #020202020202",
"o c gray1",
"O c #040404040404",
"+ c gray2",
"@ c #060606060606",
"# c #0B0B0B0B0B0B",
"$ c #0C0C0C0C0C0C",
"% c gray5",
"& c #101010101010",
"* c #131313131313",
"= c #151515151515",
"- c gray9",
"; c #181818181818",
": c #191919191919",
"> c #1B1B1B1B1B1B",
", c gray11",
"< c #202020202020",
"1 c #272727272727",
"2 c #282828282828",
"3 c #2A2A2A2A2A2A",
"4 c gray17",
"5 c gray18",
"6 c gray20",
"7 c #373737373737",
"8 c gray22",
"9 c #3A3A3A3A3A3A",
"0 c #3F3F3F3F3F3F",
"q c gray25",
"w c #4E4E4E4E4E4E",
"e c gray32",
"r c #555555555555",
"t c gray35",
"y c #5B5B5B5B5B5B",
"u c gray36",
"i c gray37",
"p c #606060606060",
"a c gray40",
"s c #686868686868",
"d c #6A6A6A6A6A6A",
"f c #6F6F6F6F6F6F",
"g c gray45",
"h c #747474747474",
"j c #7B7B7B7B7B7B",
"k c #7E7E7E7E7E7E",
"l c #8E8E8E8E8E8E",
"z c gray56",
"x c #939393939393",
"c c #9F9F9F9F9F9F",
"v c gray63",
"b c #AAAAAAAAAAAA",
"n c gray67",
"m c #ACACACACACAC",
"M c #B4B4B4B4B4B4",
"N c #B6B6B6B6B6B6",
"B c gray77",
"V c #C6C6C6C6C6C6",
"C c gray79",
"Z c #CDCDCDCDCDCD",
"A c #CECECECECECE",
"S c LightGray",
"D c gray84",
"F c #D8D8D8D8D8D8",
"G c #DADADADADADA",
"H c gray87",
"J c gray89",
"K c #E9E9E9E9E9E9",
"L c #EAEAEAEAEAEA",
"P c gray92",
"I c gray93",
"U c #EFEFEFEFEFEF",
"Y c gray94",
"T c gray95",
"R c #F4F4F4F4F4F4",
"E c #F9F9F9F9F9F9",
"W c gray98",
"Q c #FBFBFBFBFBFB",
"! c gray99",
"~ c #FDFDFDFDFDFD",
"^ c None",
/* pixels */
"^^^^^^^^^^^^^^^^^^^^^^^^",
"^^^^^^^^^^^^^^^^^^^^^^^^",
"^^^^^^^^^^^^^^^^^^^^^^^^",
"^^^^^^^^^^^^^^^^^^^^^^^^",
"^^^^^^^^^^^^^^^^^^^^^^^^",
"^H#;U^^^Ao5W^<       u^^",
"^^z a^^!6OZ^^hppppp< s^^",
"^^~7.B^l j^^^^^^^^V+,L^^",
"^^^S+3G#4E^^^^^^^K>+V^^^",
"^^^^k *oC^^^^^^^Qq x^^^^",
"^^^^E2 f^^^^^^^^g t^^^^^",
"^^^^K* 8~^^^^^^b 3R^^^^^",
"^^^^r 9 x^^^^^D$%F^^^^^^",
"^^^m iI=%J^^^T1 n^^^^^^^",
"^^I-*P^v w^^^e g^^^^^^^^",
"^^u c^^^0 m^N Xypppppd^^",
"^M q^^^^D@:Ym        &^^",
"^^^^^^^^^^^^^^^^^^^^^^^^",
"^^^^^^^^^^^^^^^^^^^^^^^^",
"^^^^^^^^^^^^^^^^^^^^^^^^",
"^^^^^^^^^^^^^^^^^^^^^^^^",
"^^^^^^^^^^^^^^^^^^^^^^^^",
"^^^^^^^^^^^^^^^^^^^^^^^^",
"^^^^^^^^^^^^^^^^^^^^^^^^"
};
