/* XPM */
static const char *tascar_xy[] = {
/* columns rows colors chars-per-pixel */
"24 24 99 2 ",
"   c black",
".  c #010101010101",
"X  c #020202020202",
"o  c gray1",
"O  c #040404040404",
"+  c gray2",
"@  c #060606060606",
"#  c #070707070707",
"$  c gray3",
"%  c #0B0B0B0B0B0B",
"&  c #0C0C0C0C0C0C",
"*  c gray5",
"=  c gray7",
"-  c #131313131313",
";  c #151515151515",
":  c gray9",
">  c #181818181818",
",  c #191919191919",
"<  c #222222222222",
"1  c #232323232323",
"2  c #282828282828",
"3  c gray16",
"4  c #2A2A2A2A2A2A",
"5  c gray17",
"6  c #2D2D2D2D2D2D",
"7  c gray18",
"8  c #2F2F2F2F2F2F",
"9  c gray20",
"0  c #373737373737",
"q  c gray22",
"w  c #393939393939",
"e  c #3A3A3A3A3A3A",
"r  c gray23",
"t  c #3F3F3F3F3F3F",
"y  c gray25",
"u  c gray26",
"i  c #444444444444",
"p  c gray27",
"a  c gray28",
"s  c #484848484848",
"d  c gray30",
"f  c #4E4E4E4E4E4E",
"g  c #505050505050",
"h  c #555555555555",
"j  c gray36",
"k  c gray37",
"l  c gray40",
"z  c #6F6F6F6F6F6F",
"x  c #747474747474",
"c  c #797979797979",
"v  c #7B7B7B7B7B7B",
"b  c #7E7E7E7E7E7E",
"n  c #808080808080",
"m  c gray53",
"M  c gray54",
"N  c gray55",
"B  c #8E8E8E8E8E8E",
"V  c gray56",
"C  c #929292929292",
"Z  c #939393939393",
"A  c #959595959595",
"S  c #989898989898",
"D  c gray61",
"F  c gray62",
"G  c #9F9F9F9F9F9F",
"H  c gray63",
"J  c #ACACACACACAC",
"K  c #B4B4B4B4B4B4",
"L  c gray77",
"P  c #C6C6C6C6C6C6",
"I  c gray79",
"U  c #CDCDCDCDCDCD",
"Y  c #CECECECECECE",
"T  c gray82",
"R  c LightGray",
"E  c gray83",
"W  c gray84",
"Q  c gray85",
"!  c #DADADADADADA",
"~  c #DDDDDDDDDDDD",
"^  c gray87",
"/  c #DFDFDFDFDFDF",
"(  c gray88",
")  c gray89",
"_  c #E6E6E6E6E6E6",
"`  c #E7E7E7E7E7E7",
"'  c gray91",
"]  c #E9E9E9E9E9E9",
"[  c #EAEAEAEAEAEA",
"{  c gray92",
"}  c gray93",
"|  c #EFEFEFEFEFEF",
" . c gray94",
".. c #F9F9F9F9F9F9",
"X. c gray98",
"o. c gray99",
"O. c #FDFDFDFDFDFD",
"+. c #FEFEFEFEFEFE",
"@. c None",
/* pixels */
"@.@.@.@.@.@.@.@.@.@.@.@.@.@.@.@.@.@.@.@.@.@.@.@.",
"@.@.@.@.@.@.@.@.@.@.@.@.@.@.@.@.@.@.@.@.@.@.@.@.",
"@.@.@.@.@.@.@.@.@.@.@.@.@.@.@.@.@.@.@.@.@.@.@.@.",
"@.@.@.@.@.@.@.@.@.@.@.@.@.@.@.@.@.@.@.@.@.@.@.@.",
"@.@.@.@.@.@.@.@.@.@.@.@.@.@.@.@.@.@.@.@.@.@.@.@.",
"@.^ % > | @.@.@.Y o 7 X.S   c @.@.@.@.@.i   I @.",
"@.@.V   l @.@.o.9 O U @.` X 3 @.@.@.@.[ o < @.@.",
"@.@.O.0 . L @.B   v @.@.@.r   Q @.@.@.S   v @.@.",
"@.@.@.R + 4 ! % 5 ..@.@.@.N   M @.@.@.u   E @.@.",
"@.@.@.@.b   - o I @.@.@.@.~   r @.@.] o 6 @.@.@.",
"@.@.@.@...2   z @.@.@.@.@.@.8 X ] @.A   m @.@.@.",
"@.@.@.@.] -   q O.@.@.@.@.@.n   D @.t   / @.@.@.",
"@.@.@.@.h   e   Z @.@.@.@.@.T   d _ X w @.@.@.@.",
"@.@.@.J   k } ; * ) @.@.@.@.@.1 $ m   C @.@.@.@.",
"@.@.} : - { @.H   f @.@.@.@.@.x   % o ' @.@.@.@.",
"@.@.j   G @.@.@.t   J @.@.@.@.P     p @.@.@.@.@.",
"@.K   y @.@.@.@.W @ ,  .@.@.@.+.,   F @.@.@.@.@.",
"@.@.@.@.@.@.@.@.@.@.@.@.@.@.@.@.< # | @.@.@.@.@.",
"@.@.@.@.@.@.@.@.@.@.@.@.@.@.@.P   g @.@.@.@.@.@.",
"@.@.@.@.@.@.@.@.@.@.@.@.@.@.o.s   J @.@.@.@.@.@.",
"@.@.@.@.@.@.@.@.@.@.@.@.@.t =   3 o.@.@.@.@.@.@.",
"@.@.@.@.@.@.@.@.@.@.@.@.@.h & a ( @.@.@.@.@.@.@.",
"@.@.@.@.@.@.@.@.@.@.@.@.@.@.@.@.@.@.@.@.@.@.@.@.",
"@.@.@.@.@.@.@.@.@.@.@.@.@.@.@.@.@.@.@.@.@.@.@.@."
};
