/* XPM */
static const char *tascar_xyz[] = {
/* columns rows colors chars-per-pixel */
"24 24 86 1 ",
"  c black",
". c gray2",
"X c #070707070707",
"o c #090909090909",
"O c gray4",
"+ c #0C0C0C0C0C0C",
"@ c gray5",
"# c #0E0E0E0E0E0E",
"$ c #111111111111",
"% c gray8",
"& c #161616161616",
"* c gray9",
"= c #191919191919",
"- c gray10",
"; c #1B1B1B1B1B1B",
": c #1E1E1E1E1E1E",
"> c #222222222222",
", c #232323232323",
"< c gray20",
"1 c #353535353535",
"2 c #393939393939",
"3 c #484848484848",
"4 c #494949494949",
"5 c #4C4C4C4C4C4C",
"6 c #4E4E4E4E4E4E",
"7 c #565656565656",
"8 c gray34",
"9 c #5B5B5B5B5B5B",
"0 c gray36",
"q c gray37",
"w c gray38",
"e c gray39",
"r c gray40",
"t c #6A6A6A6A6A6A",
"y c gray43",
"u c gray44",
"i c #717171717171",
"p c #727272727272",
"a c #7B7B7B7B7B7B",
"s c #7C7C7C7C7C7C",
"d c #7E7E7E7E7E7E",
"f c #808080808080",
"g c #818181818181",
"h c gray52",
"j c #8B8B8B8B8B8B",
"k c #929292929292",
"l c gray58",
"z c gray60",
"x c #9A9A9A9A9A9A",
"c c gray61",
"v c gray65",
"b c gray66",
"n c #A9A9A9A9A9A9",
"m c gray68",
"M c gray69",
"N c gray70",
"B c #B4B4B4B4B4B4",
"V c #B7B7B7B7B7B7",
"C c gray72",
"Z c #BBBBBBBBBBBB",
"A c #BCBCBCBCBCBC",
"S c gray74",
"D c gray",
"F c gray77",
"G c #C8C8C8C8C8C8",
"H c gray79",
"J c #CDCDCDCDCDCD",
"K c #CECECECECECE",
"L c #D5D5D5D5D5D5",
"P c #D8D8D8D8D8D8",
"I c gray90",
"U c #E6E6E6E6E6E6",
"Y c #E7E7E7E7E7E7",
"T c gray91",
"R c #ECECECECECEC",
"E c gray93",
"W c #EEEEEEEEEEEE",
"Q c gray95",
"! c gray96",
"~ c #F6F6F6F6F6F6",
"^ c gray97",
"/ c gray98",
"( c gray99",
") c #FDFDFDFDFDFD",
"_ c #FEFEFEFEFEFE",
"` c None",
/* pixels */
"````````````````````````",
"````````````````````````",
"````````````````````````",
"````````````````````````",
"````````````````````````",
"````````````````````````",
"````````````````````````",
"`B#U`W&bi5```9qA     M``",
"``88`r6`FXQ`^@C/RRRg*Y``",
"``T$f$I`_=n`m&(```HoD```",
"```x z```t8`7y```R:h````",
"```f p```S@EOG``_34_````",
"``L+vXK``(%0,```g:R`````",
"`)2a`u1)``e d``Z.BRRR!``",
"`k>~`Q-l``N P``u     s``",
"``````````j<````````````",
"````````WV;c````````````",
"````````J$w_````````````",
"````````````````````````",
"````````````````````````",
"````````````````````````",
"````````````````````````",
"````````````````````````",
"````````````````````````"
};
