/* XPM */
static const char *tascar_yz[] = {
/* columns rows colors chars-per-pixel */
"24 24 81 1 ",
"  c black",
". c #020202020202",
"X c gray1",
"o c gray2",
"O c #070707070707",
"+ c gray3",
"@ c #0B0B0B0B0B0B",
"# c #0C0C0C0C0C0C",
"$ c gray5",
"% c #101010101010",
"& c gray7",
"* c #191919191919",
"= c #1B1B1B1B1B1B",
"- c gray11",
"; c #202020202020",
": c #222222222222",
"> c #232323232323",
", c #272727272727",
"< c gray16",
"1 c #2A2A2A2A2A2A",
"2 c #2D2D2D2D2D2D",
"3 c #2F2F2F2F2F2F",
"4 c #393939393939",
"5 c gray23",
"6 c #3F3F3F3F3F3F",
"7 c gray25",
"8 c gray26",
"9 c #444444444444",
"0 c gray27",
"q c gray28",
"w c #484848484848",
"e c gray30",
"r c #505050505050",
"t c gray32",
"y c #555555555555",
"u c gray35",
"i c #5B5B5B5B5B5B",
"p c gray36",
"a c #606060606060",
"s c #686868686868",
"d c #6A6A6A6A6A6A",
"f c gray45",
"g c #747474747474",
"h c #797979797979",
"j c #7B7B7B7B7B7B",
"k c #808080808080",
"l c gray53",
"z c gray54",
"x c gray55",
"c c #929292929292",
"v c #939393939393",
"b c #959595959595",
"n c #989898989898",
"m c gray61",
"M c gray62",
"N c #AAAAAAAAAAAA",
"B c gray67",
"V c #ACACACACACAC",
"C c #B6B6B6B6B6B6",
"Z c #C6C6C6C6C6C6",
"A c gray79",
"S c gray82",
"D c gray83",
"F c gray84",
"G c #D8D8D8D8D8D8",
"H c gray85",
"J c #DDDDDDDDDDDD",
"K c #DFDFDFDFDFDF",
"L c gray88",
"P c #E6E6E6E6E6E6",
"I c #E7E7E7E7E7E7",
"U c gray91",
"Y c #E9E9E9E9E9E9",
"T c #EAEAEAEAEAEA",
"R c #EFEFEFEFEFEF",
"E c gray95",
"W c #F4F4F4F4F4F4",
"Q c #FBFBFBFBFBFB",
"! c gray99",
"~ c #FEFEFEFEFEFE",
"^ c None",
/* pixels */
"^^^^^^^^^^^^^^^^^^^^^^^^",
"^^^^^^^^^^^^^^^^^^^^^^^^",
"^^^^^^^^^^^^^^^^^^^^^^^^",
"^^^^^^^^^^^^^^^^^^^^^^^^",
"^^^^^^^^^^^^^^^^^^^^^^^^",
"^n h^^^^^9 A^;       p^^",
"^I.<^^^^TX:^^gaaaaa; s^^",
"^^5 H^^^n j^^^^^^^Zo-T^^",
"^^x z^^^8 D^^^^^^Y=oZ^^^",
"^^J 5^^YX2^^^^^^Q7 v^^^^",
"^^^3.Y^b l^^^^^^f u^^^^^",
"^^^k m^6 K^^^^^N 1W^^^^^",
"^^^S eP.4^^^^^F#$G^^^^^^",
"^^^^>+l c^^^^E, B^^^^^^^",
"^^^^g @XU^^^^t f^^^^^^^^",
"^^^^Z  0^^^^C .iaaaaad^^",
"^^^^~* M^^^^V        %^^",
"^^^^^:OR^^^^^^^^^^^^^^^^",
"^^^^Z r^^^^^^^^^^^^^^^^^",
"^^^!w V^^^^^^^^^^^^^^^^^",
"^^6& <!^^^^^^^^^^^^^^^^^",
"^^y#qL^^^^^^^^^^^^^^^^^^",
"^^^^^^^^^^^^^^^^^^^^^^^^",
"^^^^^^^^^^^^^^^^^^^^^^^^"
};
