<?xml version="1.0" encoding="UTF-8" standalone="no"?>
<svg
   xmlns:dc="http://purl.org/dc/elements/1.1/"
   xmlns:cc="http://creativecommons.org/ns#"
   xmlns:rdf="http://www.w3.org/1999/02/22-rdf-syntax-ns#"
   xmlns:svg="http://www.w3.org/2000/svg"
   xmlns="http://www.w3.org/2000/svg"
   id="view_xz"
   version="1.1"
   width="32"
   height="32"
   viewBox="0 0 32 32">
  <metadata
     id="metadata4860">
    <rdf:RDF>
      <cc:Work
         rdf:about="">
        <dc:format>image/svg+xml</dc:format>
        <dc:type
           rdf:resource="http://purl.org/dc/dcmitype/StillImage" />
        <dc:title></dc:title>
      </cc:Work>
    </rdf:RDF>
  </metadata>
  <defs
     id="defs2">
    <marker
       orient="auto"
       refY="0.0"
       refX="0.0"
       id="marker9728"
       style="overflow:visible;">
      <path
         id="path9726"
         style="fill-rule:evenodd;stroke-width:0.625;stroke-linejoin:round;stroke:#5a5a5a;stroke-opacity:1;fill:#5a5a5a;fill-opacity:1"
         d="M 8.7185878,4.0337352 L -2.2072895,0.016013256 L 8.7185884,-4.0017078 C 6.9730900,-1.6296469 6.9831476,1.6157441 8.7185878,4.0337352 z "
         transform="scale(0.3) rotate(180) translate(-2.3,0)" />
    </marker>
    <marker
       orient="auto"
       refY="0.0"
       refX="0.0"
       id="Arrow2Send"
       style="overflow:visible;">
      <path
         id="path9416"
         style="fill-rule:evenodd;stroke-width:0.625;stroke-linejoin:round;stroke:#b40000;stroke-opacity:1;fill:#b40000;fill-opacity:1"
         d="M 8.7185878,4.0337352 L -2.2072895,0.016013256 L 8.7185884,-4.0017078 C 6.9730900,-1.6296469 6.9831476,1.6157441 8.7185878,4.0337352 z "
         transform="scale(0.3) rotate(180) translate(-2.3,0)" />
    </marker>
    <marker
       orient="auto"
       refY="0.0"
       refX="0.0"
       id="Arrow1Send"
       style="overflow:visible;">
      <path
         id="path9398"
         d="M 0.0,0.0 L 5.0,-5.0 L -12.5,0.0 L 5.0,5.0 L 0.0,0.0 z "
         style="fill-rule:evenodd;stroke:#b40000;stroke-width:1pt;stroke-opacity:1;fill:#b40000;fill-opacity:1"
         transform="scale(0.2) rotate(180) translate(6,0)" />
    </marker>
    <marker
       style="overflow:visible"
       id="arrowx"
       refX="0"
       refY="0"
       orient="auto">
      <path
         style="fill:#0000b4;fill-opacity:1;fill-rule:evenodd;stroke:#0000b4;stroke-width:0.3pt;stroke-opacity:1"
         d="M 1,0 -4,-2 -2,0 -4,2 Z"
         id="arrow1" />
    </marker>
    <marker
       style="overflow:visible"
       id="arrowy"
       refX="0"
       refY="0"
       orient="auto">
      <path
         style="fill:#b40000;fill-opacity:1;fill-rule:evenodd;stroke:#b40000;stroke-width:0.3pt;stroke-opacity:1"
         d="M 1,0 -4,-2 -2,0 -4,2 Z"
         id="arrow2" />
    </marker>
  </defs>
  <path
     style="fill:none;fill-rule:evenodd;stroke:#0000b4;stroke-width:2;stroke-linecap:butt;stroke-linejoin:miter;stroke-miterlimit:4;stroke-dasharray:none;stroke-opacity:1;marker-end:url(#arrowx)"
     d="M 16,31.538516 V 3.5385165"
     id="path4747" />
  <path
     style="opacity:1;vector-effect:none;fill:none;fill-opacity:1;fill-rule:nonzero;stroke:#5a5a5a;stroke-width:2;stroke-linecap:butt;stroke-linejoin:miter;stroke-miterlimit:4;stroke-dasharray:none;stroke-dashoffset:0;stroke-opacity:1;marker-end:url(#marker9728)"
     d="m 12.898465,15.888438 c -7.5775403,0 -10.6188157,2.047603 -10.6188157,4.57345 0,2.525846 6.1428104,4.57345 13.7203507,4.57345 7.57754,0 13.720351,-2.047604 13.720351,-4.57345 0,-2.525847 -2.939581,-4.709043 -8.618816,-4.57345"
     id="path9715" />
</svg>
