<?xml version="1.0" encoding="UTF-8" standalone="no"?>
<svg
   xmlns:dc="http://purl.org/dc/elements/1.1/"
   xmlns:cc="http://creativecommons.org/ns#"
   xmlns:rdf="http://www.w3.org/1999/02/22-rdf-syntax-ns#"
   xmlns:svg="http://www.w3.org/2000/svg"
   xmlns="http://www.w3.org/2000/svg"
   viewBox="0 0 32 32"
   height="32"
   width="32"
   version="1.1"
   id="view_xz">
  <metadata
     id="metadata4860">
    <rdf:RDF>
      <cc:Work
         rdf:about="">
        <dc:format>image/svg+xml</dc:format>
        <dc:type
           rdf:resource="http://purl.org/dc/dcmitype/StillImage" />
        <dc:title></dc:title>
      </cc:Work>
    </rdf:RDF>
  </metadata>
  <defs
     id="defs2">
    <marker
       style="overflow:visible;"
       id="marker9728"
       refX="0.0"
       refY="0.0"
       orient="auto">
      <path
         transform="scale(0.3) rotate(180) translate(-2.3,0)"
         d="M 8.7185878,4.0337352 L -2.2072895,0.016013256 L 8.7185884,-4.0017078 C 6.9730900,-1.6296469 6.9831476,1.6157441 8.7185878,4.0337352 z "
         style="fill-rule:evenodd;stroke-width:0.625;stroke-linejoin:round;stroke:#5a5a5a;stroke-opacity:1;fill:#5a5a5a;fill-opacity:1"
         id="path9726" />
    </marker>
    <marker
       style="overflow:visible;"
       id="Arrow2Send"
       refX="0.0"
       refY="0.0"
       orient="auto">
      <path
         transform="scale(0.3) rotate(180) translate(-2.3,0)"
         d="M 8.7185878,4.0337352 L -2.2072895,0.016013256 L 8.7185884,-4.0017078 C 6.9730900,-1.6296469 6.9831476,1.6157441 8.7185878,4.0337352 z "
         style="fill-rule:evenodd;stroke-width:0.625;stroke-linejoin:round;stroke:#b40000;stroke-opacity:1;fill:#b40000;fill-opacity:1"
         id="path9416" />
    </marker>
    <marker
       style="overflow:visible;"
       id="Arrow1Send"
       refX="0.0"
       refY="0.0"
       orient="auto">
      <path
         transform="scale(0.2) rotate(180) translate(6,0)"
         style="fill-rule:evenodd;stroke:#b40000;stroke-width:1pt;stroke-opacity:1;fill:#b40000;fill-opacity:1"
         d="M 0.0,0.0 L 5.0,-5.0 L -12.5,0.0 L 5.0,5.0 L 0.0,0.0 z "
         id="path9398" />
    </marker>
    <marker
       orient="auto"
       refY="0"
       refX="0"
       id="arrowx"
       style="overflow:visible">
      <path
         id="arrow1"
         d="M 1,0 -4,-2 -2,0 -4,2 Z"
         style="fill:#0000b4;fill-opacity:1;fill-rule:evenodd;stroke:#0000b4;stroke-width:0.3pt;stroke-opacity:1" />
    </marker>
    <marker
       orient="auto"
       refY="0"
       refX="0"
       id="arrowy"
       style="overflow:visible">
      <path
         id="arrow2"
         d="M 1,0 -4,-2 -2,0 -4,2 Z"
         style="fill:#b40000;fill-opacity:1;fill-rule:evenodd;stroke:#b40000;stroke-width:0.3pt;stroke-opacity:1" />
    </marker>
  </defs>
  <path
     id="path4747"
     d="M 16,31.538516 V 3.5385165"
     style="fill:none;fill-rule:evenodd;stroke:#0000b4;stroke-width:2;stroke-linecap:butt;stroke-linejoin:miter;stroke-miterlimit:4;stroke-dasharray:none;stroke-opacity:1;marker-end:url(#arrowx)" />
  <path
     id="path9715"
     d="m 19.101535,15.888438 c 7.57754,0 10.618816,2.047603 10.618816,4.57345 0,2.525846 -6.142811,4.57345 -13.720351,4.57345 -7.5775403,0 -13.7203507,-2.047604 -13.7203507,-4.57345 0,-2.525847 2.9395805,-4.437857 8.6188157,-4.57345"
     style="opacity:1;vector-effect:none;fill:none;fill-opacity:1;fill-rule:nonzero;stroke:#5a5a5a;stroke-width:2;stroke-linecap:butt;stroke-linejoin:miter;stroke-miterlimit:4;stroke-dasharray:none;stroke-dashoffset:0;stroke-opacity:1;marker-end:url(#marker9728)" />
</svg>
